<?xml version="1.0" encoding="UTF-8"?>
<svg id="Ebene_1" data-name="Ebene 1" xmlns="http://www.w3.org/2000/svg" viewBox="0 0 214.37 113.39">
  <defs>
    <style>
      .cls-1 {
        fill: #fc0;
      }

      .cls-2 {
        fill: #181715;
      }

      .cls-3 {
        fill: #fff;
      }

      .cls-4 {
        fill: red;
      }
    </style>
  </defs>
  <rect class="cls-3" width="214.37" height="113.39"/>
  <path d="M37.45,38.94c.03-.22.04-.45.04-.69,0-.13,0-.28-.02-.45,2-.03,3.74-1.46,3.74-3.12,0-.84-.55-1.47-.86-1.85.07-.02.14-.03.21-.05.29.25,1.12,1.15,1.12,2.29,0,1.98-1.98,3.82-4.24,3.86M35.44,32.04c-.04-.22-.12-.42-.25-.59,0-.2.09-.4.42-.24-.17.18-.04.5-.04.5,0,0,.36-.17.29-.41.54.13.15.84-.41.74M34.98,33.06c-.07-.3-.22-.6-.42-.83-.18-.21-.46-.45-.86-.45-.18,0-.48.08-.67.16-.07-.13-.21-.44-.21-.58s.25-.29.71-.29c1.03,0,1.65.46,1.65,1.25,0,.28-.11.53-.21.75M37.63,46.35c.12,0,.18.02.25.05.3.81,1.44,2.33,1.49,2.4h.01s.01,0,.01,0c.28-.04,1-.15,1.6-.15h.02c.06,0,.14,0,.18.05.04.04.06.11.06.2,0,.15-.06.41-.14.51-.21-.23-.55-.33-1.09-.33-.17,0-.36.05-.46.08h-.04s-.05.02-.05.02l.31.32c.49.48.91.9.91,1.18,0,.17-.16.39-.31.48-.04-.51-.55-1.2-1.06-1.58l-.04-.04v.18c-.01.12-.02.3-.02.5,0,.97-.1,1.12-.44,1.12-.05,0-.13-.02-.18-.04.19-.23.26-.54.26-1.09v-.25s0-.2,0-.2c0-.23.02-.39.04-.52v-.07s-.04,0-.04,0c-.16-.02-.45-.06-.68-.06-.48,0-.81.05-1.04.27-.16-.13-.32-.34-.32-.48,0-.2.13-.22.29-.22.08,0,.16.02.27.03.21.03.52.08,1.16.08h.04v-.04c-.18-.46-.62-1.14-1.34-2.01.06-.24.12-.39.35-.39M31.46,48.75l-.02.04h.04c.64,0,.95-.05,1.16-.08.11-.01.19-.03.27-.03.16,0,.29.02.29.22,0,.14-.16.35-.32.48-.23-.22-.56-.27-1.04-.27-.22,0-.52.04-.68.06h-.02s-.03,0-.03,0v.07c.03.13.05.3.05.52v.2s0,.25,0,.25c0,.54.07.85.27,1.09-.05.02-.13.04-.18.04-.34,0-.44-.15-.44-1.12,0-.2,0-.38-.02-.5v-.18s-.05.04-.05.04c-.5.38-1.02,1.07-1.05,1.58-.15-.1-.32-.32-.32-.48,0-.28.42-.7.91-1.18l.28-.28.04-.04-.09-.02c-.11-.03-.3-.08-.46-.08-.54,0-.88.1-1.09.33-.08-.11-.14-.37-.14-.51,0-.1.02-.16.06-.2.05-.05.12-.05.19-.05h.01c.6,0,1.32.11,1.6.15h.02s0,0,0,0c.05-.07,1.2-1.59,1.49-2.4.07-.03.12-.05.25-.05.23,0,.29.15.35.39-.71.87-1.16,1.55-1.32,2.01M28.37,35.08c0-1.14.83-2.04,1.12-2.29.07.02.14.03.21.05-.31.38-.86,1.01-.86,1.85,0,1.67,1.78,3.12,3.8,3.12-.01.14-.02.29-.02.45,0,.25.01.47.04.69-2.28-.01-4.29-1.86-4.29-3.86M43.67,38.59c1.02,1.62,1.82,1.59,3.04,1.59-1-.77-1.66-1.75-1.98-2.25l-1.87-2.99c-.18-.92-.66-1.79-1.38-2.43.24-.09.44-.19.56-.28-1.22,0-2.43-.62-3.1-.62-.43,0-.7.26-.7.59.03.38.42.76,1.13.76.16,0,.37-.02.6-.06.39.54.7,1.03.7,1.73,0,1.31-1.57,2.33-3.15,2.33-.09,0-.18,0-.26-.01-.15-.32-.62-.87-.62-1.49,0-1.04.68-1.89.68-2.92,0-.64-.31-1.04-.43-1.2.2-.18.41-.4.46-.55-.11.05-.25.05-.44.05-.76,0-1.38-.19-1.98-.19-.34,0-.43.11-.43.21,0,.04,0,.07.02.09-.13-.05-.25-.08-.4-.11-.17-.04-.37-.05-.57-.05-.73,0-.99.3-.99.57,0,.22.18.63.38.94.29-.14.62-.24.78-.24.39,0,.73.37.92.81-.26.03-.31.04-.57.04-.71,0-1.2-.25-1.3-.25-.01,0-.03,0-.03.02,0,.1.2.36.6.51.52.2,1.31.27,1.44.3,0,.02-.13.27-.28.32-.03.01-.05.01-.09,0-.55-.11-.7-.15-1.39-.42-.02,0-.03,0-.03.03,0,.27.71.88,1.35,1.11-.53.68-1.2,1.38-1.51,2.44-.09,0-.18.01-.27.01-1.58,0-3.15-1.02-3.15-2.33,0-.7.31-1.19.7-1.73.23.04.43.06.6.06.71,0,1.11-.38,1.13-.76,0-.34-.27-.59-.7-.59-.67,0-1.88.62-3.1.62.12.09.32.19.56.28-.71.64-1.19,1.51-1.38,2.43l-1.87,2.99c-.32.5-.98,1.49-1.98,2.25,1.21,0,2.01.03,3.04-1.59l.96-1.53c.07.2.16.39.26.58l-1.91,3.05c-.32.51-.98,1.48-1.98,2.25,1.21,0,2.01.03,3.04-1.59l1.64-2.62c.12.13.25.26.39.38l-2.32,3.71c-.32.51-.97,1.48-1.98,2.25,1.21,0,2.01.03,3.03-1.59l2.26-3.61c.15.09.3.18.46.27l-2.76,4.41c-.32.5-.97,1.47-1.98,2.25,1.21,0,2.01.03,3.04-1.59l2.84-4.54c.17.06.34.13.51.18l-3.21,5.13c-.31.5-.98,1.49-1.98,2.25,1.21,0,2.01.03,3.03-1.59l3.42-5.47s.07,0,.11.02c.09.3.16.58.16.85,0,1.72-1.12,3.24-2.48,4.41.09.04.24.05.38.05.28,0,.46-.02.59-.04-.32.71-.99,1.64-1.33,2.11-.44-.08-1.09-.14-1.51-.14s-.49.26-.49.49c0,.4.19.72.41.9.08-.2.25-.48,1.06-.48.02,0,.05,0,.08,0-.24.27-.98.87-.98,1.36,0,.32.35.8.82.8-.03-.11-.03-.2-.03-.27,0-.39.35-.85.64-1.17,0,.1,0,.09,0,.2,0,.93.09,1.36.68,1.36.29,0,.49-.16.56-.21-.38-.35-.4-.63-.4-1.15,0-.14,0-.27,0-.45,0-.12,0-.28-.02-.39.21-.03.3-.03.46-.03,0,0,.84-.07,1.04.37.23-.21.56-.5.56-.83,0-.21-.1-.46-.54-.46-.16,0-.68.1-1.11.1.12-.26.63-1.01,1.08-1.56.07.21.17.44.41.63.04-.35.24-1.46.79-2.12.07.44.15.89.15,1.84,0,2.31-.56,4.02-1.74,4.35.15.27.48.51.82.51.43,0,.67-.49.91-.95.12.34.47,1.17.82,1.17s.69-.84.82-1.17c.24.46.48.95.91.95.34,0,.66-.24.82-.51-1.18-.32-1.74-2.04-1.74-4.35,0-.95.09-1.4.15-1.84.55.65.76,1.76.79,2.12.23-.19.34-.42.41-.63.45.55.96,1.3,1.08,1.56-.43,0-.95-.1-1.11-.1-.43,0-.53.25-.53.46,0,.32.33.62.56.83.2-.44,1.04-.37,1.04-.37.16,0,.25,0,.46.03-.02.12-.02.27-.02.39v.45c0,.52-.02.8-.4,1.15.07.05.27.21.56.21.59,0,.68-.43.68-1.36,0-.11,0-.1,0-.2.29.32.64.79.64,1.17,0,.08,0,.17-.03.27.47,0,.82-.48.82-.8,0-.49-.75-1.09-.98-1.36.04,0,.07,0,.08,0,.82,0,.98.27,1.06.48.22-.17.41-.5.41-.9,0-.23-.05-.49-.49-.49s-1.07.06-1.51.14c-.34-.47-1.01-1.39-1.33-2.11.13.02.31.04.59.04.14,0,.29-.02.38-.05-1.35-1.17-2.48-2.69-2.48-4.41,0-.27.06-.55.16-.85.04,0,.07-.01.11-.02l3.42,5.47c1.02,1.62,1.83,1.59,3.04,1.59-1-.76-1.67-1.75-1.98-2.25l-3.21-5.13c.18-.05.34-.12.51-.18l2.84,4.54c1.02,1.62,1.82,1.59,3.04,1.59-1.01-.78-1.66-1.75-1.98-2.25l-2.75-4.41c.16-.09.31-.18.46-.27l2.26,3.61c1.02,1.62,1.82,1.59,3.04,1.59-1.01-.77-1.66-1.74-1.98-2.25l-2.32-3.71c.14-.12.27-.25.39-.38l1.64,2.62c1.02,1.62,1.82,1.59,3.04,1.59-1-.77-1.66-1.75-1.98-2.25l-1.91-3.05c.1-.19.19-.38.26-.58l.96,1.53ZM43.67,38.59"/>
  <rect class="cls-2" x="52.78" y="31.64" width="3.5" height="20"/>
  <rect class="cls-4" x="52.78" y="51.54" width="3.5" height="20.1"/>
  <rect class="cls-1" x="52.78" y="71.64" width="3.5" height="20"/>
  <path d="M68.57,33.46c0-1.29-.78-2.11-2.75-2.11h-1.59v8.28h1.69c1.98,0,2.87-.95,2.87-2.25,0-1.1-.71-1.82-1.56-1.99v-.02c.72-.19,1.34-.75,1.34-1.91h0ZM67.52,33.5c0,.95-.59,1.54-1.7,1.54h-.54v-2.86h.55c1.16,0,1.69.57,1.69,1.32h0ZM67.67,37.32c0,.95-.53,1.45-1.75,1.45h-.65v-2.91h.71c1.08,0,1.69.57,1.69,1.45h0ZM73.19,38.98h.03v.65h.89v-5.76h-.97v4.41c-.19.24-.57.64-1.16.64-.65,0-.96-.39-.96-1.33v-3.71h-.97v3.78c0,1.56.64,2.12,1.66,2.12.88,0,1.4-.59,1.5-.79h0ZM77.74,34.55c.67,0,1,.4,1,1.37v3.71h.97v-3.78c0-1.56-.65-2.12-1.68-2.12-.9,0-1.41.59-1.52.79h-.02v-.65h-.89v5.76h.97v-4.44c.19-.24.59-.64,1.18-.64h0ZM83.18,38.91c-.67,0-1.27-.53-1.27-2.11s.71-2.21,1.61-2.21c.35,0,.58.09.75.2v3.55c-.13.19-.47.57-1.08.57h0ZM84.32,39.02h.02v.61h.89v-8.59l-.97.11v2.76c-.18-.07-.45-.14-.82-.14-1.22,0-2.54.74-2.54,3.07,0,2.1.92,2.94,2.02,2.94.91,0,1.29-.58,1.4-.76h0ZM88.59,34.52c.61,0,.93.47.93,1.26,0,.18-.01.34-.02.42h-2.09c.05-1.08.49-1.68,1.18-1.68h0ZM90.53,39.09l-.36-.68c-.13.13-.53.5-1.21.5-.97,0-1.5-.64-1.56-1.98h2.94c.04-.28.07-.62.07-1.12,0-1.38-.67-2.09-1.77-2.09-1.2,0-2.2.91-2.2,2.95,0,2.17.91,3.1,2.36,3.1,1.09,0,1.56-.52,1.71-.68h0ZM94.61,34.34c-.19-.19-.58-.61-1.46-.61-.93,0-1.67.64-1.67,1.49,0,.79.43,1.26,1.15,1.72l.36.23c.56.35.84.54.84,1.09,0,.37-.31.66-.89.66-.63,0-.98-.38-1.16-.57l-.47.77c.23.24.7.66,1.62.66,1.18,0,1.84-.71,1.84-1.62,0-.85-.48-1.32-1.26-1.79l-.36-.22c-.51-.31-.75-.55-.75-.98,0-.34.27-.61.79-.61.54,0,.88.34,1.01.48l.42-.7ZM98.07,34.59c.6,0,.86.4.86,1.33v3.71h.97v-3.86c0-.22-.01-.42-.05-.6.22-.25.58-.58,1.11-.58.65,0,1,.4,1,1.33v3.71h.97v-3.86c0-1.37-.6-2.04-1.75-2.04-.74,0-1.27.44-1.52.77-.26-.52-.74-.77-1.39-.77-.79,0-1.29.53-1.44.79h-.02v-.65h-.89v5.76h.97v-4.44c.17-.2.54-.6,1.19-.6h0ZM104.87,32.48c.39,0,.65-.29.65-.69s-.26-.68-.65-.68-.66.29-.66.68.26.69.66.69h0ZM105.35,33.87h-.97v5.76h.97v-5.76ZM108.99,34.55c.67,0,1,.4,1,1.37v3.71h.97v-3.78c0-1.56-.65-2.12-1.68-2.12-.9,0-1.42.59-1.52.79h-.02v-.65h-.89v5.76h.97v-4.44c.19-.24.59-.64,1.18-.64h0ZM112.9,32.48c.38,0,.65-.29.65-.69s-.27-.68-.65-.68-.66.29-.66.68.26.69.66.69h0ZM113.38,33.87h-.97v5.76h.97v-5.76ZM117.77,34.34c-.19-.19-.58-.61-1.46-.61-.94,0-1.67.64-1.67,1.49,0,.79.43,1.26,1.15,1.72l.36.23c.55.35.84.54.84,1.09,0,.37-.31.66-.89.66-.63,0-.98-.38-1.16-.57l-.47.77c.23.24.69.66,1.62.66,1.18,0,1.84-.71,1.84-1.62,0-.85-.48-1.32-1.26-1.79l-.36-.22c-.52-.31-.75-.55-.75-.98,0-.34.27-.61.79-.61.54,0,.88.34,1.01.48l.42-.7ZM121.68,39.52l-.13-.78c-.1.06-.31.17-.6.17-.49,0-.68-.24-.68-1.06v-3.19h1.26l.12-.79h-1.38v-1.61h-.86l-.11,1.61-.7.14v.65h.7v3.32c0,1.27.5,1.79,1.49,1.79.52,0,.82-.19.9-.25h0ZM124.42,34.52c.61,0,.93.47.93,1.26,0,.18-.01.34-.02.42h-2.09c.05-1.08.49-1.68,1.18-1.68h0ZM126.36,39.09l-.36-.68c-.13.13-.53.5-1.21.5-.97,0-1.5-.64-1.56-1.98h2.94c.04-.28.07-.62.07-1.12,0-1.38-.67-2.09-1.77-2.09-1.2,0-2.19.91-2.19,2.95,0,2.17.91,3.1,2.36,3.1,1.09,0,1.56-.52,1.71-.68h0ZM130.19,33.86c-.09-.03-.25-.09-.53-.09-.73,0-1.04.43-1.21.89h-.02v-.78h-.89v5.76h.97v-4.22c.14-.39.47-.78,1.08-.78.26,0,.43.07.48.09l.12-.86ZM131.52,32.48c.39,0,.65-.29.65-.69s-.26-.68-.65-.68-.66.29-.66.68.27.69.66.69h0ZM132,33.87h-.97v5.76h.97v-5.76ZM136.61,38.98h.02v.65h.89v-5.76h-.97v4.41c-.2.24-.58.64-1.16.64-.65,0-.96-.39-.96-1.33v-3.71h-.97v3.78c0,1.56.64,2.12,1.66,2.12.88,0,1.39-.59,1.5-.79h0ZM141.17,34.59c.6,0,.86.4.86,1.33v3.71h.97v-3.86c0-.22-.01-.42-.05-.6.22-.25.57-.58,1.1-.58.65,0,1,.4,1,1.33v3.71h.97v-3.86c0-1.37-.6-2.04-1.75-2.04-.75,0-1.27.44-1.52.77-.27-.52-.75-.77-1.39-.77-.79,0-1.28.53-1.44.79h-.02v-.65h-.89v5.76h.97v-4.44c.17-.2.54-.6,1.19-.6h0ZM141.17,34.59"/>
  <path d="M66.45,46.66l.12-.79h-1.3v-1.03c0-.75.25-1.01.71-1.01.25,0,.43.1.53.16l.21-.81c-.1-.06-.41-.21-.82-.21-.85,0-1.6.5-1.6,1.76v1.15l-.7.13v.65h.7v4.97h.97v-4.97h1.18ZM70.9,44.21c0-.37-.25-.61-.58-.61s-.57.24-.57.61.25.61.57.61.58-.24.58-.61h0ZM69.05,44.21c0-.37-.25-.61-.58-.61s-.57.24-.57.61.25.61.57.61.58-.24.58-.61h0ZM70.53,50.98h.03v.65h.89v-5.76h-.97v4.41c-.19.24-.57.64-1.16.64-.65,0-.96-.39-.96-1.33v-3.71h-.97v3.78c0,1.56.64,2.12,1.66,2.12.88,0,1.39-.59,1.5-.79h0ZM75.58,45.86c-.1-.03-.25-.09-.53-.09-.74,0-1.05.43-1.21.89h-.02v-.78h-.89v5.76h.97v-4.22c.15-.39.46-.78,1.08-.78.27,0,.43.07.48.09l.12-.86ZM83.24,45.46c0-1.29-.78-2.11-2.75-2.11h-1.59v8.28h1.69c1.98,0,2.87-.95,2.87-2.25,0-1.1-.71-1.82-1.56-1.99v-.02c.72-.19,1.34-.75,1.34-1.91h0ZM82.18,45.5c0,.95-.59,1.54-1.7,1.54h-.54v-2.86h.55c1.16,0,1.69.57,1.69,1.32h0ZM82.34,49.32c0,.95-.53,1.45-1.75,1.45h-.65v-2.91h.71c1.08,0,1.69.57,1.69,1.45h0ZM85.23,44.48c.38,0,.64-.29.64-.69s-.26-.68-.64-.68-.66.29-.66.68.26.69.66.69h0ZM85.71,45.87h-.97v5.76h.97v-5.76ZM88.16,43.04l-.97.11v7.22c0,1.02.45,1.37,1.09,1.37.43,0,.68-.11.78-.16l-.09-.72c-.06.02-.18.07-.36.07-.34,0-.46-.17-.46-.65v-7.25ZM91.95,50.91c-.67,0-1.27-.53-1.27-2.11s.71-2.21,1.61-2.21c.35,0,.57.09.74.2v3.55c-.13.19-.47.57-1.08.57h0ZM93.09,51.02h.02v.61h.89v-8.59l-.97.11v2.76c-.18-.07-.44-.14-.81-.14-1.23,0-2.55.74-2.55,3.07,0,2.1.93,2.94,2.02,2.94.91,0,1.3-.58,1.41-.76h0ZM98.61,50.98h.02v.65h.89v-5.76h-.97v4.41c-.2.24-.58.64-1.16.64-.65,0-.96-.39-.96-1.33v-3.71h-.97v3.78c0,1.56.64,2.12,1.66,2.12.88,0,1.39-.59,1.5-.79h0ZM103.16,46.55c.67,0,1,.4,1,1.37v3.71h.97v-3.78c0-1.56-.65-2.12-1.68-2.12-.9,0-1.42.59-1.52.79h-.02v-.65h-.89v5.76h.97v-4.44c.19-.24.59-.64,1.18-.64h0ZM109.31,47.66c0,.83-.46,1.15-1.01,1.15s-1-.32-1-1.15.47-1.15,1.02-1.15.98.33.98,1.15h0ZM110.73,52.08c0-1.09-.82-1.53-1.91-1.53h-.73c-.42,0-.59-.17-.59-.41,0-.3.28-.46.47-.54.1.01.19.01.3.01,1.13,0,1.99-.73,1.99-1.96,0-.38-.1-.74-.28-1.03h.72l.13-.76h-1.75c-.24-.09-.49-.14-.77-.14-1.08,0-1.96.64-1.96,1.93,0,.91.4,1.49.99,1.77v.02c-.15.07-.7.31-.7.93,0,.36.13.62.37.81v.02c-.26.14-.96.55-.96,1.41,0,1,.66,1.56,1.88,1.56,1.7,0,2.79-.86,2.79-2.1h0ZM108.02,53.35c-.68,0-1.02-.31-1.02-.92,0-.58.31-.85.59-1.01.13.02.29.04.44.04h.74c.59,0,.97.22.97.77,0,.59-.54,1.13-1.72,1.13h0ZM111.68,53.31c.64-.23,1.39-.74,1.39-1.84,0-.79-.32-1.18-.79-1.18-.34,0-.62.21-.62.65s.29.68.66.68h.04c0,.7-.37,1.01-.88,1.26l.2.42ZM117.88,51.63v-3.56h2.72v-.83h-2.72v-3.06h2.95l.07-.83h-4.07v8.28h1.05ZM124.09,48.39h-.3c-1.31,0-2.4.45-2.4,1.78,0,.94.66,1.61,1.54,1.61.73,0,1.08-.49,1.21-.78h.02c.01.29.02.47.03.64h.93c-.02-.16-.07-.71-.07-1.2v-2.63c0-1.45-.62-2.08-1.8-2.08-.93,0-1.48.44-1.73.7l.41.65c.21-.2.6-.52,1.18-.52.62,0,.98.31.98,1.29v.55ZM124.09,49.11v1.27c-.12.18-.4.57-.96.57-.48,0-.77-.3-.77-.89,0-.63.49-.9,1.42-.93h.31ZM128.67,46.59c.6,0,.86.4.86,1.33v3.71h.97v-3.86c0-.22-.01-.42-.05-.6.21-.25.57-.58,1.11-.58.64,0,1,.4,1,1.33v3.71h.97v-3.86c0-1.37-.6-2.04-1.75-2.04-.75,0-1.27.44-1.52.77-.27-.52-.75-.77-1.39-.77-.79,0-1.28.53-1.44.79h-.02v-.65h-.89v5.76h.97v-4.44c.17-.2.54-.6,1.19-.6h0ZM135.47,44.48c.38,0,.65-.29.65-.69s-.27-.68-.65-.68-.66.29-.66.68.27.69.66.69h0ZM135.95,45.87h-.97v5.76h.97v-5.76ZM138.4,43.04l-.97.11v7.22c0,1.02.44,1.37,1.09,1.37.43,0,.68-.11.78-.16l-.08-.72c-.06.02-.18.07-.36.07-.33,0-.45-.17-.45-.65v-7.25ZM140.67,44.48c.39,0,.65-.29.65-.69s-.26-.68-.65-.68-.66.29-.66.68.26.69.66.69h0ZM141.15,45.87h-.97v5.76h.97v-5.76ZM144.51,46.52c.61,0,.94.47.94,1.26,0,.18-.01.34-.02.42h-2.09c.05-1.08.49-1.68,1.18-1.68h0ZM146.45,51.09l-.36-.68c-.13.13-.53.5-1.22.5-.97,0-1.5-.64-1.56-1.98h2.94c.04-.28.07-.62.07-1.12,0-1.38-.67-2.09-1.76-2.09-1.2,0-2.2.91-2.2,2.95,0,2.17.91,3.1,2.37,3.1,1.09,0,1.56-.52,1.71-.68h0ZM147.5,53.31c.64-.23,1.4-.74,1.4-1.84,0-.79-.33-1.18-.79-1.18-.34,0-.62.21-.62.65s.29.68.66.68h.04c0,.7-.37,1.01-.87,1.26l.2.42ZM156.22,43.83c-.18-.14-.71-.62-1.81-.62-1.3,0-2.12.82-2.12,1.89,0,1.14.53,1.69,1.44,2.46l.67.57c.7.59,1.03.97,1.03,1.69,0,.56-.46,1.03-1.27,1.03s-1.4-.53-1.61-.72l-.42.91c.24.22.86.75,2.05.75,1.49,0,2.3-.85,2.3-2.11,0-1.08-.61-1.73-1.39-2.38l-.67-.55c-.76-.61-1.11-1.02-1.11-1.67,0-.52.37-.96,1.09-.96.77,0,1.25.38,1.38.52l.43-.79ZM159.52,46.52c.61,0,.94.47.94,1.26,0,.18-.01.34-.02.42h-2.09c.05-1.08.49-1.68,1.18-1.68h0ZM161.46,51.09l-.36-.68c-.13.13-.53.5-1.21.5-.97,0-1.5-.64-1.56-1.98h2.94c.04-.28.07-.62.07-1.12,0-1.38-.67-2.09-1.76-2.09-1.2,0-2.2.91-2.2,2.95,0,2.17.91,3.1,2.37,3.1,1.09,0,1.56-.52,1.71-.68h0ZM164.79,46.55c.67,0,1,.4,1,1.37v3.71h.97v-3.78c0-1.56-.65-2.12-1.68-2.12-.9,0-1.42.59-1.53.79h-.02v-.65h-.89v5.76h.97v-4.44c.19-.24.59-.64,1.18-.64h0ZM168.7,44.48c.39,0,.65-.29.65-.69s-.26-.68-.65-.68-.66.29-.66.68.27.69.66.69h0ZM169.18,45.87h-.97v5.76h.97v-5.76ZM170.41,48.75c0,2.16.97,3.02,2.24,3.02s2.3-.88,2.3-3.02-.97-3.03-2.25-3.03-2.3.9-2.3,3.03h0ZM173.94,48.75c0,1.52-.47,2.16-1.26,2.16s-1.27-.64-1.27-2.16.46-2.2,1.26-2.2,1.27.67,1.27,2.2h0ZM178.83,45.86c-.09-.03-.25-.09-.53-.09-.73,0-1.04.43-1.21.89h-.02v-.78h-.89v5.76h.97v-4.22c.15-.39.47-.78,1.08-.78.26,0,.43.07.48.09l.12-.86ZM181.4,46.52c.61,0,.93.47.93,1.26,0,.18-.01.34-.02.42h-2.09c.05-1.08.49-1.68,1.18-1.68h0ZM183.34,51.09l-.36-.68c-.13.13-.53.5-1.21.5-.97,0-1.5-.64-1.56-1.98h2.94c.04-.28.07-.62.07-1.12,0-1.38-.67-2.09-1.76-2.09-1.2,0-2.2.91-2.2,2.95,0,2.17.91,3.1,2.36,3.1,1.09,0,1.56-.52,1.71-.68h0ZM186.66,46.55c.67,0,1,.4,1,1.37v3.71h.97v-3.78c0-1.56-.65-2.12-1.68-2.12-.9,0-1.42.59-1.52.79h-.02v-.65h-.89v5.76h.97v-4.44c.19-.24.59-.64,1.18-.64h0ZM189.95,53.31c.64-.23,1.39-.74,1.39-1.84,0-.79-.32-1.18-.79-1.18-.34,0-.62.21-.62.65s.29.68.66.68h.04c0,.7-.37,1.01-.88,1.26l.2.42ZM189.95,53.31"/>
  <path d="M65.27,63.63v-3.56h2.72v-.83h-2.72v-3.06h2.95l.07-.83h-4.07v8.28h1.04ZM71.91,57.86c-.1-.03-.25-.09-.53-.09-.74,0-1.05.43-1.22.89h-.02v-.78h-.89v5.76h.97v-4.22c.14-.39.46-.78,1.08-.78.26,0,.43.07.48.09l.12-.86ZM75.05,60.39h-.3c-1.31,0-2.4.45-2.4,1.78,0,.94.66,1.61,1.54,1.61.73,0,1.08-.49,1.21-.78h.02c.01.29.02.47.04.64h.93c-.02-.16-.07-.71-.07-1.2v-2.63c0-1.45-.62-2.08-1.8-2.08-.93,0-1.48.44-1.73.7l.41.65c.21-.2.6-.52,1.18-.52.62,0,.98.31.98,1.29v.55ZM75.05,61.11v1.27c-.12.18-.4.57-.96.57-.48,0-.77-.3-.77-.89,0-.63.49-.9,1.42-.93h.31ZM80.6,62.98h.02v.65h.89v-5.76h-.97v4.41c-.19.24-.57.64-1.16.64-.64,0-.96-.39-.96-1.33v-3.71h-.97v3.78c0,1.56.64,2.12,1.66,2.12.88,0,1.39-.59,1.5-.79h0ZM84.87,58.52c.61,0,.94.47.94,1.26,0,.18-.01.34-.02.42h-2.09c.05-1.08.49-1.68,1.18-1.68h0ZM86.81,63.09l-.36-.68c-.13.13-.53.5-1.21.5-.97,0-1.5-.64-1.56-1.98h2.94c.04-.28.07-.62.07-1.12,0-1.38-.67-2.09-1.76-2.09-1.2,0-2.2.91-2.2,2.95,0,2.17.91,3.1,2.36,3.1,1.09,0,1.56-.52,1.71-.68h0ZM90.14,58.55c.67,0,1,.4,1,1.37v3.71h.97v-3.78c0-1.56-.65-2.12-1.68-2.12-.9,0-1.42.59-1.52.79h-.03v-.65h-.89v5.76h.97v-4.44c.19-.24.59-.64,1.18-.64h0ZM99.22,62.98h.02v.65h.89v-5.76h-.97v4.41c-.19.24-.57.64-1.16.64-.65,0-.96-.39-.96-1.33v-3.71h-.97v3.78c0,1.56.63,2.12,1.66,2.12.87,0,1.39-.59,1.5-.79h0ZM103.77,58.55c.67,0,1,.4,1,1.37v3.71h.97v-3.78c0-1.56-.65-2.12-1.68-2.12-.9,0-1.42.59-1.53.79h-.02v-.65h-.89v5.76h.97v-4.44c.19-.24.59-.64,1.18-.64h0ZM109.2,62.91c-.67,0-1.27-.53-1.27-2.11s.71-2.21,1.6-2.21c.35,0,.58.09.75.2v3.55c-.13.19-.47.57-1.08.57h0ZM110.34,63.02h.02v.61h.89v-8.59l-.97.11v2.76c-.18-.07-.45-.14-.82-.14-1.22,0-2.54.74-2.54,3.07,0,2.1.92,2.94,2.01,2.94.91,0,1.3-.58,1.4-.76h0ZM116.98,55.35h-1.04v6.31c0,.89-.28,1.17-.82,1.17-.28,0-.43-.08-.53-.14l-.17.86c.1.06.35.18.74.18,1.09,0,1.81-.52,1.81-1.97v-6.42ZM121.75,62.98h.02v.65h.89v-5.76h-.97v4.41c-.19.24-.57.64-1.16.64-.65,0-.96-.39-.96-1.33v-3.71h-.97v3.78c0,1.56.64,2.12,1.66,2.12.87,0,1.39-.59,1.5-.79h0ZM126.88,59.66c0,.83-.45,1.15-1.01,1.15s-1-.32-1-1.15.47-1.15,1.02-1.15.98.33.98,1.15h0ZM128.3,64.08c0-1.09-.82-1.53-1.91-1.53h-.74c-.42,0-.59-.17-.59-.41,0-.3.27-.46.46-.54.1.01.2.01.3.01,1.13,0,1.99-.73,1.99-1.96,0-.38-.09-.74-.27-1.03h.72l.13-.76h-1.75c-.24-.09-.49-.14-.76-.14-1.08,0-1.96.64-1.96,1.93,0,.91.39,1.49.98,1.77v.02c-.14.07-.69.31-.69.93,0,.36.13.62.37.81v.02c-.27.14-.96.55-.96,1.41,0,1,.66,1.56,1.88,1.56,1.71,0,2.78-.86,2.78-2.1h0ZM125.59,65.35c-.68,0-1.02-.31-1.02-.92,0-.58.31-.85.59-1.01.13.02.29.04.45.04h.73c.59,0,.97.22.97.77,0,.59-.54,1.13-1.72,1.13h0ZM131.18,58.52c.61,0,.94.47.94,1.26,0,.18-.01.34-.02.42h-2.09c.05-1.08.49-1.68,1.18-1.68h0ZM133.12,63.09l-.36-.68c-.13.13-.53.5-1.21.5-.97,0-1.5-.64-1.56-1.98h2.94c.04-.28.07-.62.07-1.12,0-1.38-.67-2.09-1.76-2.09-1.2,0-2.2.91-2.2,2.95,0,2.17.91,3.1,2.37,3.1,1.09,0,1.56-.52,1.71-.68h0ZM136.44,58.55c.67,0,1,.4,1,1.37v3.71h.97v-3.78c0-1.56-.65-2.12-1.68-2.12-.9,0-1.42.59-1.53.79h-.02v-.65h-.89v5.76h.97v-4.44c.19-.24.58-.64,1.18-.64h0ZM141.88,62.91c-.67,0-1.27-.53-1.27-2.11s.71-2.21,1.61-2.21c.35,0,.58.09.75.2v3.55c-.13.19-.47.57-1.08.57h0ZM143.02,63.02h.02v.61h.89v-8.59l-.97.11v2.76c-.18-.07-.44-.14-.82-.14-1.22,0-2.54.74-2.54,3.07,0,2.1.92,2.94,2.01,2.94.91,0,1.3-.58,1.4-.76h0ZM143.02,63.02"/>
  <g>
    <path d="M28.29,2.43c-.23-.15-.68-.33-1.3-.33-1.33,0-2.66.86-2.66,3.07s1.03,3.19,2.49,3.19c.6,0,1.05-.12,1.38-.25v-2.1l-.65-.15c-.1-.02-.15-.05-.15-.12,0-.09.07-.22.12-.29h2.18s.01.04.01.09c0,.17-.08.29-.36.36l-.24.05v2.24c-.28.26-1.02.8-2.53.8-1.81,0-3.22-1.17-3.22-3.72,0-2.73,1.99-3.78,3.7-3.78,1.08,0,1.62.3,1.96.44.02.3.05,1.02.05,1.08,0,.28-.08.46-.31.46-.07,0-.15-.01-.23-.04l-.23-1.01Z"/>
    <path d="M31.45,6.31c.01,1.33.62,2.05,1.63,2.05.68,0,1.05-.29,1.29-.49.08.06.13.21.14.3,0,.26-.67.82-1.78.82-1.18,0-2.17-.72-2.17-2.55s1.09-2.74,2.22-2.74,1.71.72,1.71,1.76c0,.27-.05.58-.12.85h-2.91ZM33.53,5.81c.02-.08.05-.26.05-.44,0-.59-.23-1.12-.92-1.12s-1.1.51-1.2,1.56h2.07Z"/>
    <path d="M38.3,4.37h-1.31v3.95l.73.14c.1.02.15.05.15.14,0,.1-.06.22-.1.27h-2.33s-.01-.04-.01-.07c0-.19.13-.28.33-.35l.39-.13v-3.95h-.8s-.01-.04-.01-.07c0-.2.13-.29.33-.35l.48-.13v-.16c0-1.67.91-2.49,1.77-2.49.44,0,.63.2.63.49,0,.19-.09.3-.18.39-.07-.04-.37-.19-.68-.19-.52,0-.69.26-.69.89v1.06h1.42l-.1.55Z"/>
    <path d="M43.69,6.29c0,1.81-1.26,2.7-2.48,2.7s-2.31-.84-2.31-2.59,1.24-2.7,2.51-2.7,2.28.79,2.28,2.59ZM39.83,6.34c0,1.41.63,2.07,1.46,2.07s1.48-.66,1.48-2.07-.65-2.08-1.48-2.08-1.46.67-1.46,2.08ZM40.4,2.91c-.28,0-.51-.21-.51-.54s.23-.54.51-.54.51.21.51.54-.23.54-.51.54ZM42.18,2.91c-.28,0-.51-.21-.51-.54s.23-.54.51-.54.51.21.51.54-.23.54-.51.54Z"/>
    <path d="M46.08,4.64h.03c.22-.34.61-.94,1.33-.94.49,0,.7.22.7.51,0,.2-.09.35-.17.44-.13-.05-.39-.16-.69-.16-.58,0-.88.23-1.14.6v3.22l.74.14c.1.02.15.05.15.14,0,.1-.06.22-.1.27h-2.33s-.01-.04-.01-.07c0-.19.13-.28.33-.35l.39-.13v-3.92l-.77-.1s-.01-.04-.01-.08c0-.18.14-.3.39-.33l1.24-.13-.06.88Z"/>
    <path d="M53.01,8.29l.77.1s.01.04.01.08c0,.18-.14.3-.39.33l-1.18.13v-.66h-.03c-.24.34-.67.72-1.5.72-1,0-2.02-.61-2.02-2.5s1.32-2.79,2.58-2.79c.39,0,.7.07.9.14v-1.95l-.77-.1s-.01-.04-.01-.08c0-.18.14-.3.39-.33l1.24-.13v7.04ZM52.16,4.66c-.18-.18-.5-.38-1.01-.38-.9,0-1.6.69-1.6,2.06s.6,1.96,1.39,1.96c.71,0,1.07-.3,1.22-.45v-3.19Z"/>
    <path d="M55.44,6.31c.01,1.33.62,2.05,1.63,2.05.68,0,1.05-.29,1.29-.49.08.06.13.21.14.3,0,.26-.67.82-1.79.82-1.18,0-2.17-.72-2.17-2.55s1.09-2.74,2.21-2.74,1.71.72,1.71,1.76c0,.27-.05.58-.12.85h-2.91ZM57.52,5.81c.02-.08.05-.26.05-.44,0-.59-.23-1.12-.92-1.12s-1.1.51-1.2,1.56h2.07Z"/>
    <path d="M60.9,4.64h.03c.22-.34.61-.94,1.33-.94.49,0,.7.22.7.51,0,.2-.09.35-.17.44-.13-.05-.39-.16-.69-.16-.58,0-.88.23-1.14.6v3.22l.74.14c.1.02.15.05.15.14,0,.1-.06.22-.1.27h-2.33s-.01-.04-.01-.07c0-.19.13-.28.33-.35l.39-.13v-3.92l-.77-.1s-.01-.04-.01-.08c0-.18.14-.3.39-.33l1.24-.13-.06.88Z"/>
    <path d="M66.47,4.37h-1.47v3.23c0,.4.14.78.68.78.41,0,.79-.2.87-.26.04.06.07.22.07.3,0,.09-.35.57-1.25.57s-1.23-.5-1.23-1.21v-3.41h-.8s-.01-.04-.01-.07c0-.2.13-.29.33-.35l.53-.13.2-1.41h.61v1.41h1.57l-.1.55Z"/>
    <path d="M73.71,4.35l-1.78,4.51h-.68l-1.81-4.55-.47-.16s-.01-.06-.01-.08c0-.17.14-.25.29-.25h1.71c.08,0,.13.04.13.1s-.05.19-.07.23l-.59.17,1.27,3.59h.02l1.38-3.59-.78-.17s-.01-.06-.01-.08c0-.17.14-.25.29-.25h1.56c.08,0,.13.04.13.1s-.05.19-.07.23l-.5.19Z"/>
    <path d="M79.45,6.29c0,1.81-1.26,2.7-2.48,2.7s-2.31-.84-2.31-2.59,1.24-2.7,2.51-2.7,2.28.79,2.28,2.59ZM75.59,6.34c0,1.41.63,2.07,1.46,2.07s1.48-.66,1.48-2.07-.65-2.08-1.48-2.08-1.46.67-1.46,2.08Z"/>
    <path d="M88.31,8.32l.63.14c.11.02.15.05.15.14,0,.1-.06.22-.11.27h-2.23s-.01-.04-.01-.07c0-.19.13-.28.33-.35l.39-.13v-2.69c0-.96-.48-1.23-1.01-1.23-.75,0-1.12.3-1.41.57.03.19.06.39.06.61v2.74l.63.14c.11.02.15.05.15.14,0,.1-.06.22-.1.27h-2.23s-.01-.04-.01-.07c0-.19.13-.28.33-.35l.39-.13v-2.69c0-.96-.48-1.23-1.01-1.23-.69,0-1.07.27-1.34.51v3.4l.63.14c.1.02.15.05.15.14,0,.1-.06.22-.1.27h-2.23s-.01-.04-.01-.07c0-.19.13-.28.33-.35l.39-.13v-3.92l-.77-.1s-.01-.04-.01-.08c0-.18.14-.3.39-.33l1.24-.13-.06.7h.03c.19-.2.7-.77,1.68-.77.61,0,1.09.29,1.34.84.27-.3.84-.84,1.8-.84s1.62.66,1.62,1.88v2.74Z"/>
    <path d="M90.51,4.85c-.31,0-.57-.22-.57-.57s.25-.59.57-.59.59.23.59.59-.26.57-.59.57ZM90.51,8.99c-.31,0-.57-.22-.57-.57s.25-.59.57-.59.59.23.59.59-.26.57-.59.57Z"/>
  </g>
</svg>